<?xml version="1.0" encoding="utf-8"?>
<!-- Generator: Adobe Illustrator 20.1.0, SVG Export Plug-In . SVG Version: 6.00 Build 0)  -->
<svg version="1.1" id="Layer_2" xmlns="http://www.w3.org/2000/svg" xmlns:xlink="http://www.w3.org/1999/xlink" x="0px" y="0px"
	 width="960px" height="540px" viewBox="0 0 960 540" style="enable-background:new 0 0 960 540;" xml:space="preserve">
<style type="text/css">
	.st0{fill:#FFFFFF;}
	.st1{fill:none;stroke:#FED965;stroke-width:7;stroke-miterlimit:10;stroke-dasharray:15.0412,15.0412;}
	.st2{fill:#006EEC;}
	.st3{fill:#92C47D;}
	.st4{fill:none;stroke:#006EEC;stroke-width:7;stroke-miterlimit:10;stroke-dasharray:20.266,20.266;}
	.st5{fill:#A4C2F5;}
	.st6{fill:#FED965;stroke:#FFFFFF;stroke-width:5;stroke-miterlimit:10;}
	.st7{fill:#FED965;}
	.st8{fill:#DF6664;}
	.st9{fill:#EA9999;}
	.st10{fill:none;stroke:#000000;}
	.st11{font-family:'Phosphate-Solid';}
	.st12{font-size:34.4744px;}
	.st13{letter-spacing:-1.1;}
	.st14{font-size:34.473px;}
	.st15{font-size:34.4727px;}
	.st16{font-size:34.4759px;}
	.st17{font-size:34.4758px;}
	.st18{font-size:34.4757px;}
	.st19{fill:none;}
	.st20{font-family:'Phosphate-Solid';}
	.st21{font-size:28px;}
	.st22{font-size:20px;}
	.st23{font-size:24px;}
	.name{
		opacity: 0;
		animation: shine 1s ease-in-out forwards;
		animation-delay: 1s;
	}
	@keyframes shine {
		50% {
			opacity: .5;
		}
		75% {fill: #DF6664;}
		100% {
			opacity: 1;
		}
	}
</style>
<rect id="class" x="34" y="172.2" class="st0" width="153.6" height="43.6"/>
<g id="dotted">
	<ellipse class="st1" cx="437" cy="389.4" rx="291.2" ry="80.4"/>
</g>
<path id="bName" class="st2" d="M260.5,424c0,0-5.5,28-5.5,37c0,8.5,5.5,33,5.5,33s122,13.5,149.5-2c42.6-24,156-2,156-2
	s4.2-25.7,4.4-34c0.2-9.5-5.5-31-5.5-31c-5.2-9.9-136.4-8-165.8,2C353.3,442.5,260.5,424,260.5,424z"/>
<g id="gCircle">
	<path class="st3" d="M575,303.2c5.9,64.2-83.4,66.6-182.3,75.8S222.9,400.4,217,336.3c-5.9-64.2,69.4-123.6,168.3-132.7
		S569.1,239.1,575,303.2z"/>
	<path class="st4" d="M575,303.2c5.9,64.2-83.4,66.6-182.3,75.8S222.9,400.4,217,336.3c-5.9-64.2,69.4-123.6,168.3-132.7
		S569.1,239.1,575,303.2z"/>
</g>
<polygon id="berkArrow" class="st5" points="351.8,87.5 319.5,44.2 319.5,68 35,68 35,106 319.5,106 319.5,130.8 "/>
<polygon id="wTriangle" class="st0" points="177.8,372.6 448.1,461.4 746.8,270.9 "/>
<path id="yName" class="st6" d="M280.1,408c0,0-5.5,28-5.5,37c0,8.5,5.5,33,5.5,33s122.2,13.5,149.7-2c42.6-24,156.3-2,156.3-2
	s4.2-25.7,4.4-34c0.2-9.5-5.5-31-5.5-31c-5.2-9.9-136.6-8-166.1,2C373.1,426.5,280.1,408,280.1,408z"/>
<rect id="bA" x="134" y="118" class="st7" width="161" height="40"/>
<polygon id="bArrow" class="st5" points="608.4,346.3 617.1,398.1 627.1,376.5 659.7,391.7 864.9,487.2 880.9,452.7 673.2,356.1 
	643.2,342.1 653.6,319.6 "/>
<polygon id="rArrow" class="st8" points="572.4,233.2 623.9,244.9 607.9,227.3 804.2,48 778.6,20 582.2,199.2 565.5,180.9 "/>
<polygon id="tArrow" class="st0" points="650.4,238.8 679,280.1 677.2,256.4 900.9,239.6 898,201.8 674.4,218.5 672.6,193.7 "/>
<polygon id="thunder" class="st9" points="361.8,396.4 401.2,399.8 440.2,402.4 417.8,389.7 458.3,388 439.1,379.8 484.3,369.2 
	406.8,366.4 429.4,380.2 387.1,382.3 414.4,394.1 "/>
<g id="myname">
	<text transform="matrix(0.8933 0.2252 -0.2444 0.9697 298.8775 454.8228)" class="name st11 st12">K</text>
	<text transform="matrix(0.9071 0.1606 -0.1743 0.9847 316.9262 459.2102)" class="name st11 st12 st13">A</text>
	<text transform="matrix(0.9102 0.142 -0.1542 0.988 333.6991 462.1753)" class="name st11 st14">T</text>
	<text transform="matrix(0.9201 -4.661630e-02 5.060135e-02 0.9987 352.3568 464.9902)" class="name st11 st12">E</text>
	<text transform="matrix(0.9057 -0.1684 0.1828 0.9831 389.7459 460.2291)" class="name st11 st15">S</text>
	<text transform="matrix(0.9132 -0.1214 0.1318 0.9913 404.805 457.3094)" class="name st11 st12">H</text>
	<text transform="matrix(0.9176 -8.222787e-02 8.925722e-02 0.996 425.1178 454.7484)" class="name st11 st12">I</text>
	<text transform="matrix(0.9194 -5.799075e-02 6.294816e-02 0.998 432.5275 454.0578)" class="name st11 st12">J</text>
	<text transform="matrix(0.9205 -3.660820e-02 3.973770e-02 0.9992 444.1253 453.3518)" class="name st11 st12">I</text>
	<text transform="matrix(0.9211 -1.561400e-02 1.694878e-02 0.9999 451.5668 453.0149)" class="name st11 st16">E</text>
	<text transform="matrix(0.9211 1.548510e-02 -1.680887e-02 0.9999 500.6596 453.1411)" class="name st11 st17">X</text>
	<text transform="matrix(0.9212 7.986096e-03 -8.668796e-03 1 518.7207 453.4622)" class="name st11 st18">U</text>
</g>
<rect x="154" y="78" class="st19" width="228" height="49"/>
<text transform="matrix(1 0 0 1 154 96.6758)" class="st20 st21">UC BERKELEY</text>
<rect x="143" y="133" class="st19" width="228" height="49"/>
<text transform="matrix(1 0 0 1 143 146.3398)"><tspan x="0" y="0" class="st2 st20 st22">B</tspan><tspan x="11.2" y="0" class="st2 st20 st22">.A</tspan><tspan x="30.4" y="0" class="st2 st20 st22">. </tspan><tspan x="39.9" y="0" class="st2 st20 st22">C</tspan><tspan x="52.4" y="0" class="st2 st20 st22">S &amp; Econ</tspan></text>
<rect x="47" y="187" transform="matrix(1 -2.816946e-03 2.816946e-03 1 -0.5951 0.4544)" class="st19" width="228" height="49"/>
<text transform="matrix(1 0 0 1 46.9673 200.019)"><tspan x="0" y="0" class="st8 st20 st22">Class of </tspan><tspan x="83.4" y="0" class="st8 st20 st22">2</tspan><tspan x="91.7" y="0" class="st8 st20 st22">0</tspan><tspan x="103" y="0" class="st8 st20 st22">19</tspan></text>
<polygon id="bArrow_1_" class="st19" points="643.6,344.6 633.2,367.1 663.2,381.1 870.9,477.7 854.9,512.2 649.7,416.7 
	617.1,401.5 607.1,423.1 598.4,371.3 "/>
<text transform="matrix(0.9062 0.4229 -0.4229 0.9062 643.3662 371.8438)"><tspan x="0" y="0" class="st10 st20 st23">A</tspan><tspan x="15" y="0" class="st10 st20 st23" rotate="0">R</tspan><tspan x="28.8" y="0" class="st10 st20 st23" rotate="-0.1">T</tspan><tspan x="40" y="0" class="st10 st20 st23" rotate="-0.1">I</tspan><tspan x="47.1" y="0" class="st10 st20 st23" rotate="-0.1">S</tspan><tspan x="56.8" y="0" class="st10 st20 st23" rotate="-0.1">T</tspan></text>
<polygon id="rArrow_1_" class="st19" points="578.5,206.9 595.2,225.2 791.6,46 817.2,74 620.9,253.3 636.9,270.9 585.4,259.2 "/>
<text transform="matrix(0.7387 -0.674 0.674 0.7387 604.7974 216.4424)"><tspan x="0" y="0" class="st7 st20 st23">P</tspan><tspan x="13.7" y="0" class="st7 st20 st23">R</tspan><tspan x="27.5" y="0" class="st7 st20 st23">O</tspan><tspan x="45.3" y="0" class="st7 st20 st23">G</tspan><tspan x="62" y="0" class="st7 st20 st23">R</tspan><tspan x="77.1" y="0" class="st7 st20 st23">A</tspan><tspan x="92.1" y="0" class="st7 st20 st23">M</tspan><tspan x="110.6" y="0" class="st7 st20 st23">M</tspan><tspan x="129" y="0" class="st7 st20 st23">E</tspan><tspan x="140.1" y="0" class="st7 st20 st23">R</tspan></text>
<polygon id="tArrow_1_" class="st19" points="676.6,218.7 678.4,243.5 902,226.8 904.9,264.6 681.2,281.4 683,305.1 654.4,263.8 "/>
<text transform="matrix(0.9972 -7.448119e-02 7.448119e-02 0.9972 691.5029 242.5215)"><tspan x="0" y="0" class="st3 st20 st23">T</tspan><tspan x="11.2" y="0" class="st3 st20 st23" rotate="0">R</tspan><tspan x="26.3" y="0" class="st3 st20 st23">A</tspan><tspan x="41.3" y="0" class="st3 st20 st23">N</tspan><tspan x="56.6" y="0" class="st3 st20 st23">S</tspan><tspan x="67.4" y="0" class="st3 st20 st23">L</tspan><tspan x="78.8" y="0" class="st3 st20 st23">A</tspan><tspan x="92.1" y="0" class="st3 st20 st23">T</tspan><tspan x="102.5" y="0" class="st3 st20 st23">O</tspan><tspan x="120.3" y="0" class="st3 st20 st23">R</tspan></text>
</svg>
