<svg id="Layer_1" data-name="Layer 1" xmlns="http://www.w3.org/2000/svg" viewBox="0 0 257.22 51.1"><defs><style>.cls-1{font-size:34.47px;fill:none;stroke:#010101;font-family:Phosphate-Solid, Phosphate;}</style></defs><title>name</title><text class="cls-1" transform="translate(14.64 31.39) rotate(13.59) scale(0.92 1)">K</text><text class="cls-1" transform="translate(36.45 36.39) rotate(9.64) scale(0.92 1)">A</text><text class="cls-1" transform="translate(54.04 39.54) rotate(7.47) scale(0.92 1)">T</text><text class="cls-1" transform="translate(71.93 41.41) rotate(-4.76) scale(0.92 1)">E</text><text class="cls-1" transform="matrix(0.91, -0.14, 0.16, 0.99, 87.56, 39.85)"> </text><text class="cls-1" transform="translate(94.13 38.79) rotate(-10.23) scale(0.92 1)"> </text><text class="cls-1" transform="matrix(0.91, -0.17, 0.19, 0.98, 100.41, 37.65)"> </text><text class="cls-1" transform="translate(106.61 36.44) rotate(-10.5) scale(0.92 1)">S</text><text class="cls-1" transform="matrix(0.91, -0.12, 0.13, 0.99, 120.37, 33.78)">H</text><text class="cls-1" transform="translate(139.54 31.31) rotate(-5.18) scale(0.92 1)">I</text><text class="cls-1" transform="translate(148.73 30.46) rotate(-3.5) scale(0.92 1)">J</text><text class="cls-1" transform="translate(160.59 29.75) rotate(-2.06) scale(0.92 1)">I</text><text class="cls-1" transform="matrix(0.92, -0.01, 0.01, 1, 169.86, 29.39)">E</text><text class="cls-1" transform="matrix(0.92, 0, 0, 1, 184.38, 29.23)"> </text><text class="cls-1" transform="matrix(0.92, 0.01, -0.01, 1, 190.69, 29.24)"> </text><text class="cls-1" transform="translate(197.02 29.29) rotate(0.71) scale(0.92 1)"> </text><text class="cls-1" transform="translate(203.35 29.37) rotate(0.89) scale(0.92 1)"> </text><text class="cls-1" transform="translate(209.7 29.47) rotate(0.99) scale(0.92 1)"> </text><text class="cls-1" transform="matrix(0.92, 0.02, -0.02, 1, 216.05, 29.58)">X</text><text class="cls-1" transform="translate(233.88 29.9) rotate(0.53) scale(0.92 1)">U</text></svg>