<?xml version="1.0" encoding="utf-8"?>
<!-- Generator: Adobe Illustrator 20.1.0, SVG Export Plug-In . SVG Version: 6.00 Build 0)  -->
<svg version="1.1" id="Layer_1" xmlns="http://www.w3.org/2000/svg" xmlns:xlink="http://www.w3.org/1999/xlink" x="0px" y="0px"
	 width="246.9px" height="54.2px" viewBox="0 0 246.9 54.2" style="enable-background:new 0 0 246.9 54.2;" xml:space="preserve">
<style type="text/css">
	.st0{fill:none;stroke:#010101;}
	.st1{font-family:'ArialMT';}
	.st2{font-size:34.4744px;}
	.st3{letter-spacing:-1.1;}
	.st4{font-size:34.473px;}
	.st5{font-size:34.4727px;}
	.st6{font-size:34.4759px;}
	.st7{font-size:34.4758px;}
	.st8{font-size:34.4757px;}
</style>
<g id="myname">
	<text transform="matrix(0.8933 0.2252 -0.2444 0.9697 3.3434 32.2574)" class="st0 st1 st2">K</text>
	<text transform="matrix(0.9071 0.1606 -0.1743 0.9847 21.392 36.6448)" class="st0 st1 st2 st3">A</text>
	<text transform="matrix(0.9102 0.142 -0.1542 0.988 38.1649 39.6098)" class="st0 st1 st4">T</text>
	<text transform="matrix(0.9201 -4.661630e-02 5.060135e-02 0.9987 56.8226 42.4248)" class="st0 st1 st2">E</text>
	<text transform="matrix(0.9057 -0.1684 0.1828 0.9831 94.2117 37.6636)" class="st0 st1 st5">S</text>
	<text transform="matrix(0.9132 -0.1214 0.1318 0.9913 109.2708 34.744)" class="st0 st1 st2">H</text>
	<text transform="matrix(0.9176 -8.222787e-02 8.925722e-02 0.996 129.5836 32.183)" class="st0 st1 st2">I</text>
	<text transform="matrix(0.9194 -5.799075e-02 6.294816e-02 0.998 136.9933 31.4924)" class="st0 st1 st2">J</text>
	<text transform="matrix(0.9205 -3.660820e-02 3.973770e-02 0.9992 148.5911 30.7864)" class="st0 st1 st2">I</text>
	<text transform="matrix(0.9211 -1.561400e-02 1.694878e-02 0.9999 156.0326 30.4494)" class="st0 st1 st6">E</text>
	<text transform="matrix(0.9211 1.548510e-02 -1.680887e-02 0.9999 205.1254 30.5757)" class="st0 st1 st7">X</text>
	<text transform="matrix(0.9212 7.986096e-03 -8.668796e-03 1 223.1866 30.8968)" class="st0 st1 st8">U</text>
</g>
</svg>
