<?xml version="1.0" encoding="utf-8"?>
<!-- Generator: Adobe Illustrator 20.1.0, SVG Export Plug-In . SVG Version: 6.00 Build 0)  -->
<svg version="1.1" id="Layer_1" xmlns="http://www.w3.org/2000/svg" xmlns:xlink="http://www.w3.org/1999/xlink" x="0px" y="0px"
	 width="960px" height="538.7px" viewBox="0 0 960 538.7" style="enable-background:new 0 0 960 538.7;" xml:space="preserve">
<style type="text/css">
	.st0{fill:#EA9999;}
	.st1{fill:#9DC4FF;}
	.st2{fill:#FFE29C;}
	.st3{fill:#92C47D;stroke:#FFFFFF;stroke-width:7;stroke-miterlimit:10;}
	.st4{fill:none;}
	.st5{fill:#0053B1;}
	.st6{font-family:'Phosphate-Solid';}
	.st7{font-size:55px;}
	.st8{letter-spacing:2;}
	.st9{letter-spacing:1;}
	.st10{letter-spacing:-4;}
	.st11{fill:#FFFFFF;}
	.st12{font-family:'STYuanti-TC-Regular';}
	.st13{fill:#DF6664;}
	.st14{font-family:'HiraKakuStdN-W8-83pv-RKSJ-H';}
	.st15{font-size:50px;}
	.st16{letter-spacing:-1;}
</style>
<path class="st0" d="M863.8,312.3c-17.4,0-33.2,11.4-39.1,28.4l-0.6,1.9l-12.9,40.3c-0.2,0.7-0.1,1.5,0.3,2.1
	c0.5,0.6,1.1,0.9,1.8,0.9h7.6c0,1.8,0,4.5,0.6,7.4h12.6c0,0-1.5,6.1-9.1,9.8c0.6,0.9,1.2,1.8,1.9,2.6c3.6,4.2,8.7,6.7,15.2,7.1v10.9
	c0,1.3,1,2.4,2.3,2.4h42.8c1.2,0,2.3-1.1,2.3-2.4v-34.2c10.2-8.2,16.1-20.7,16.1-34.1C905.4,331.7,886.7,312.3,863.8,312.3z
	 M889.2,350.7H876c-0.8,0-1.5-0.5-1.8-1.2l-1.2-2.8l-7,15.7c-0.3,0.7-1,1.2-1.8,1.2c0,0,0,0-0.1,0c-0.8,0-1.5-0.6-1.8-1.4l-7.5-21.4
	l-4.3,8.6c-0.3,0.7-1,1.2-1.8,1.2h-9.8c-1.1,0-2-0.9-2-2.1c0-1.2,0.9-2.1,2-2.1h8.6l5.8-11.8c0.3-0.7,1.1-1.2,1.9-1.1
	c0.8,0,1.5,0.6,1.7,1.4l7.4,21l6.8-15.3c0.3-0.7,1-1.2,1.8-1.2l0,0c0.8,0,1.5,0.5,1.8,1.2l2.5,5.8h12c1.1,0,2,0.9,2,2.1
	C891.3,349.8,890.4,350.7,889.2,350.7z"/>
<path class="st1" d="M509.7,313.4H270.9l-43.9,51l-42.7-51h-37.6c-10.2,0-20-1.7-28.6-4.7c-21.3-7.4-36-22.7-36-40.3v-181
	c0-24.8,29.1-45,64.6-45h363c35.5,0,64.6,20.3,64.6,45v181C574.3,293.1,545.2,313.4,509.7,313.4z"/>
<path class="st2" d="M775.3,265.2c0,22.5-8,43.4-21.7,60.8c-7.3,9.3,23,47,32.9,51.6c5.7,2.7-20.5,6-45.1,1.9
	c-20.9-3.6-40-14.8-45.1-13c-15.9,5.8-33.5,9-52,9c-72.4,0-131-49.4-131-110.3s58.7-110.3,131-110.3S775.3,204.3,775.3,265.2z"/>
<path class="st3" d="M766,77.7c0,39.4-54.1,71.3-120.8,71.3c-13.8,0-27-1.4-39.4-3.9c-7.5-1.5-50.2,16-45.6,10.4
	c10-12.4,10.4-21.6,4.3-24.8c-24.6-13-40.1-32-40.1-53c0-39.4,54.1-71.3,120.8-71.3S766,38.4,766,77.7z"/>
<rect x="127.1" y="154.2" class="st4" width="431.4" height="170.3"/>
<text transform="matrix(1 0 0 1 127.0508 190.9216)"><tspan x="0" y="0" class="st5 st6 st7">T</tspan><tspan x="25.6" y="0" class="st5 st6 st7 st8">R</tspan><tspan x="60.2" y="0" class="st5 st6 st7">ANS</tspan><tspan x="154.4" y="0" class="st5 st6 st7 st9">L</tspan><tspan x="180.6" y="0" class="st5 st6 st7 st10">A</tspan><tspan x="210.9" y="0" class="st5 st6 st7">TIONS.</tspan></text>
<rect x="586.4" y="52.5" class="st4" width="118.6" height="47.5"/>
<text transform="matrix(1 0 0 1 586.3725 92.9669)" class="st11 st12 st7">翻译</text>
<rect x="554.4" y="240.7" class="st4" width="292.2" height="105.9"/>
<text transform="matrix(1 0 0 1 554.185 280.7279)"><tspan x="0" y="0" class="st13 st14 st15">ほ</tspan><tspan x="49.3" y="0" class="st13 st14 st15 st16">ん</tspan><tspan x="98.1" y="0" class="st13 st14 st15 st10">や</tspan><tspan x="143.3" y="0" class="st13 st14 st15 st10">く</tspan></text>
</svg>
